# xmcd
# Copyright (C) 1995-1998 Ti Kan
#
# Track frame offsets:
#       150
#       7320
#       13801
#       19789
#       29801
#
# Disc length: 515 seconds
#
# Revision: 0
# Processed by: cddbd v1.5.2PL0 Copyright (c) Steve Scherf et al.
# Submitted via: CD-Import v1.0
#
DISCID=3d020105
DTITLE=Andrew - Kulinarium
DYEAR=1900
DGENRE=
TTITLE0=Kulinarium 20april
TTITLE1=Kulinarium 21april
TTITLE2=Kulinarium 22april
TTITLE3=Kulinarium 23april
TTITLE4=Kulinarium 24april
EXTD=
EXTT0=
EXTT1=
EXTT2=
EXTT3=
EXTT4=
PLAYORDER=
